<svg width="17" height="8" viewBox="0 0 17 8" fill="none" xmlns="http://www.w3.org/2000/svg">
<path d="M0.5 3.18164C0.223858 3.18164 0 3.4055 0 3.68164C0 3.95778 0.223858 4.18164 0.5 4.18164L0.5 3.68164L0.5 3.18164ZM16.8536 4.03519C17.0488 3.83993 17.0488 3.52335 16.8536 3.32809L13.6716 0.146107C13.4763 -0.0491555 13.1597 -0.0491555 12.9645 0.146107C12.7692 0.341369 12.7692 0.657951 12.9645 0.853214L15.7929 3.68164L12.9645 6.51007C12.7692 6.70533 12.7692 7.02191 12.9645 7.21717C13.1597 7.41244 13.4763 7.41244 13.6716 7.21717L16.8536 4.03519ZM0.5 3.68164L0.5 4.18164L16.5 4.18164V3.68164V3.18164L0.5 3.18164L0.5 3.68164Z" fill="black"/>
</svg>
