<svg width="18" height="8" viewBox="0 0 18 8" fill="none" xmlns="http://www.w3.org/2000/svg">
<path d="M17.2812 4.18164C17.5574 4.18164 17.7812 3.95778 17.7812 3.68164C17.7813 3.4055 17.5574 3.18164 17.2813 3.18164L17.2812 3.68164L17.2812 4.18164ZM0.144131 3.32809C-0.0511303 3.52335 -0.0511303 3.83993 0.144131 4.03519L3.32611 7.21717C3.52137 7.41244 3.83796 7.41244 4.03322 7.21717C4.22848 7.02191 4.22848 6.70533 4.03322 6.51007L1.20479 3.68164L4.03322 0.853212C4.22848 0.65795 4.22848 0.341368 4.03322 0.146106C3.83796 -0.0491566 3.52137 -0.0491567 3.32611 0.146105L0.144131 3.32809ZM17.2812 3.68164L17.2813 3.18164L0.497685 3.18164L0.497684 3.68164L0.497684 4.18164L17.2812 4.18164L17.2812 3.68164Z" fill="black"/>
</svg>
