<svg width="36" height="36" viewBox="0 0 36 36" fill="none" xmlns="http://www.w3.org/2000/svg">
<path d="M16.1683 7.29286L14.1958 5.32036C13.4147 4.53931 12.1484 4.53931 11.3673 5.32036L5.32036 11.3673C4.53932 12.1484 4.53931 13.4147 5.32036 14.1958L7.29286 16.1683C7.61783 16.4932 7.82097 16.9202 7.8681 17.3774L8.61982 24.6683C8.79257 26.3438 10.8324 27.0685 12.0235 25.8774L25.8774 12.0235C27.0685 10.8324 26.3438 8.79257 24.6683 8.61982L17.3774 7.8681C16.9202 7.82097 16.4932 7.61783 16.1683 7.29286Z" fill="#FF9D94"/>
<path d="M14.3116 29.8704C16.5929 30.8187 19.0664 31.084 21.4194 30.6328C23.7724 30.1816 25.8992 29.0342 27.5308 27.3355C29.1624 25.6369 30.2256 23.4634 30.5859 21.0899C30.9462 18.7163 30.5874 16.2494 29.5549 14.001" stroke="#FF9D94" stroke-width="3" stroke-linecap="round"/>
<path d="M20.3673 24.6073C21.2996 24.5967 22.3592 24.0603 23.1946 23.192C24.0266 22.3201 24.5994 21.2969 24.6096 20.3643" stroke="#FF9D94" stroke-width="3" stroke-linecap="round"/>
</svg>
